<?xml version="1.0" encoding="iso-8859-1"?>
<svg t="1577425912593" class="icon" viewBox="0 0 1024 1024" version="1.1" xmlns="http://www.w3.org/2000/svg" p-id="4777" width="200" height="200"><path d="M866.986667 914.773333H147.911111c-18.204444 0-31.857778-15.928889-31.857778-31.857777v-204.8c0-34.133333 15.928889-50.062222 34.133334-34.133334l97.848889 77.368889c13.653333 11.377778 31.857778 27.306667 43.235555 13.653333l111.502222-134.257777c11.377778-13.653333 29.582222-31.857778 43.235556-20.48l95.573333 84.195555c13.653333 11.377778 40.96 29.582222 50.062222 15.928889l238.933334-286.72c31.857778-36.408889 68.266667-27.306667 68.266666 15.928889v473.315556c0 15.928889-15.928889 31.857778-31.857777 31.857777zM587.093333 562.062222c-9.102222 11.377778-22.755556 18.204444-36.408889 20.48-13.653333 2.275556-29.582222-2.275556-38.684444-11.377778l-109.226667-91.022222-109.226666 143.36c-9.102222 11.377778-20.48 18.204444-36.408889 20.48H250.311111c-11.377778 0-25.031111-4.551111-34.133333-11.377778l-95.573334-77.368888c-22.755556-18.204444-25.031111-52.337778-6.826666-75.093334s52.337778-25.031111 75.093333-6.826666l52.337778 43.235555 109.226667-143.36c9.102222-11.377778 22.755556-18.204444 36.408888-20.48 13.653333-2.275556 29.582222 2.275556 40.96 11.377778l109.226667 91.022222 141.084445-175.217778-38.684445-31.857777c-27.306667-22.755556-20.48-47.786667 13.653333-54.613334l202.524445-43.235555c36.408889-6.826667 45.511111 9.102222 25.031111 38.684444L587.093333 562.062222z m0 0" fill="#d81e06" p-id="4778"></path></svg>

